<svg xmlns="http://www.w3.org/2000/svg" xmlns:xlink="http://www.w3.org/1999/xlink" width="62.752" height="50.288" viewBox="0 0 62.752 50.288"><defs><style>.a{fill:none;}.b{fill:#061a37;}.c{fill:#0099d7;}.d{fill:#e3001b;}.e{opacity:0.75;}.f{clip-path:url(#a);}.g{fill:#f98409;}.h{fill:#251b4b;}.i{clip-path:url(#b);}.j{fill:#59438d;}.k{clip-path:url(#c);}</style><clipPath id="a"><rect class="a" width="17.16" height="11.509"/></clipPath><clipPath id="b"><rect class="a" width="13.445" height="16.074"/></clipPath><clipPath id="c"><rect class="a" width="8.624" height="16.854"/></clipPath></defs><g transform="translate(-59.952 -62.126)"><g transform="translate(59.952 103.588)"><g transform="translate(0 0.012)"><path class="b" d="M66.769,1488.361a3.657,3.657,0,0,1-2.775,1.327,3.483,3.483,0,0,1-1.613-.377,4.251,4.251,0,0,1-1.278-1,4.705,4.705,0,0,1-.846-1.406,4.426,4.426,0,0,1-.3-1.613,4.653,4.653,0,0,1,.3-1.656,4.424,4.424,0,0,1,.834-1.394,4.094,4.094,0,0,1,1.266-.962,3.566,3.566,0,0,1,1.595-.359,4.475,4.475,0,0,1,1.156.14,3.517,3.517,0,0,1,.931.389,2.971,2.971,0,0,1,.706.6,3.719,3.719,0,0,1,.505.761l-.657.438a2.8,2.8,0,0,0-1.108-1.181,3.14,3.14,0,0,0-1.546-.377,2.741,2.741,0,0,0-1.3.3,3.121,3.121,0,0,0-.986.81,3.7,3.7,0,0,0-.627,1.156,4.192,4.192,0,0,0-.219,1.345,3.875,3.875,0,0,0,.25,1.388,3.674,3.674,0,0,0,.688,1.15,3.354,3.354,0,0,0,1.029.785,2.855,2.855,0,0,0,1.284.292,3.065,3.065,0,0,0,1.418-.347,4.2,4.2,0,0,0,1.3-1.1v-1.436H64.846v-.657h2.642v4.248h-.718Z" transform="translate(-59.952 -1480.923)"/><path class="b" d="M344.781,1491.648V1483h3.652a2.245,2.245,0,0,1,1.029.237,2.715,2.715,0,0,1,.81.621,2.855,2.855,0,0,1,.53.87,2.71,2.71,0,0,1,.189.986,2.928,2.928,0,0,1-.14.907,2.808,2.808,0,0,1-.39.779,2.358,2.358,0,0,1-.6.584,2.128,2.128,0,0,1-.791.323l2.118,3.335h-.962l-2.033-3.189h-2.556v3.189Zm.852-3.944h2.824a1.448,1.448,0,0,0,.688-.164,1.638,1.638,0,0,0,.53-.444,2.162,2.162,0,0,0,.341-.633,2.264,2.264,0,0,0,.122-.743,2.046,2.046,0,0,0-.14-.749,2.071,2.071,0,0,0-.377-.627,1.8,1.8,0,0,0-.56-.426,1.516,1.516,0,0,0-.676-.158h-2.751Z" transform="translate(-336.455 -1482.944)"/><path class="b" d="M582.856,1490.942a2.7,2.7,0,0,0,1.357-.31,2.454,2.454,0,0,0,.864-.816,3.308,3.308,0,0,0,.45-1.15,6.684,6.684,0,0,0,.128-1.3V1483h.852v4.358a6.884,6.884,0,0,1-.195,1.662,3.949,3.949,0,0,1-.627,1.382,3.1,3.1,0,0,1-1.126.95,3.7,3.7,0,0,1-1.692.353,3.64,3.64,0,0,1-1.723-.371,3.144,3.144,0,0,1-1.126-.98,3.969,3.969,0,0,1-.609-1.388,7.015,7.015,0,0,1-.183-1.607V1483h.84v4.358a6.5,6.5,0,0,0,.134,1.327,3.329,3.329,0,0,0,.456,1.144,2.432,2.432,0,0,0,.858.8A2.679,2.679,0,0,0,582.856,1490.942Z" transform="translate(-564.048 -1482.944)"/><path class="b" d="M864.891,1491.648V1483h3.579a2.245,2.245,0,0,1,1.029.237,2.714,2.714,0,0,1,.81.621,2.953,2.953,0,0,1,.536.87,2.638,2.638,0,0,1,.195.986,2.936,2.936,0,0,1-.183,1.029,2.78,2.78,0,0,1-.511.87,2.567,2.567,0,0,1-.785.609,2.216,2.216,0,0,1-1.016.231h-2.8v3.189Zm.852-3.944h2.763a1.448,1.448,0,0,0,.688-.164,1.672,1.672,0,0,0,.529-.438,2.063,2.063,0,0,0,.341-.633,2.317,2.317,0,0,0,.122-.749,2.1,2.1,0,0,0-.517-1.388,1.729,1.729,0,0,0-.56-.42,1.567,1.567,0,0,0-.676-.152h-2.69Z" transform="translate(-841.361 -1482.944)"/><path class="b" d="M1043.4,1483h.718l3.591,8.643h-.9l-1.12-2.7h-3.883l-1.108,2.7h-.913Zm2.094,5.271-1.741-4.273-1.765,4.273Z" transform="translate(-1011.144 -1482.944)"/></g><g transform="translate(35.63 0)"><path class="c" d="M1281.33,1483l1.692,5.66,1.668-5.66h2.5l-3.177,8.643h-1.972l-3.214-8.643Z" transform="translate(-1278.822 -1482.932)"/><path class="c" d="M1587.392,1491.648V1483h2.374v8.643Z" transform="translate(-1578.372 -1482.932)"/><path class="c" d="M1705.222,1483.4a6.65,6.65,0,0,0-.755-.389,6.9,6.9,0,0,0-.736-.274,2.659,2.659,0,0,0-.8-.128,1.107,1.107,0,0,0-.505.1.34.34,0,0,0-.189.329.379.379,0,0,0,.109.28,1.04,1.04,0,0,0,.317.2,3.973,3.973,0,0,0,.505.177q.3.085.676.207a8.849,8.849,0,0,1,1.077.4,3.345,3.345,0,0,1,.822.517,2,2,0,0,1,.523.724,2.624,2.624,0,0,1,.183,1.035,2.728,2.728,0,0,1-.286,1.309,2.346,2.346,0,0,1-.755.846,3.183,3.183,0,0,1-1.059.457,5.134,5.134,0,0,1-1.187.14,6.7,6.7,0,0,1-.974-.073,8.377,8.377,0,0,1-.992-.207,8.639,8.639,0,0,1-.949-.317,6.054,6.054,0,0,1-.846-.414l1.023-2.082a7.127,7.127,0,0,0,.889.475,6.272,6.272,0,0,0,.883.329,3.521,3.521,0,0,0,1,.146,1.021,1.021,0,0,0,.542-.1.317.317,0,0,0,.152-.274.392.392,0,0,0-.152-.31,1.4,1.4,0,0,0-.42-.225q-.268-.1-.615-.195t-.736-.231a6.326,6.326,0,0,1-.986-.42,2.674,2.674,0,0,1-.682-.511,1.825,1.825,0,0,1-.4-.651,2.534,2.534,0,0,1-.128-.84,2.9,2.9,0,0,1,.262-1.266,2.6,2.6,0,0,1,.712-.913,3.187,3.187,0,0,1,1.029-.554,3.92,3.92,0,0,1,1.223-.189,4.654,4.654,0,0,1,.925.091,7.448,7.448,0,0,1,.87.231,8.331,8.331,0,0,1,.785.3q.365.164.657.31Z" transform="translate(-1687.108 -1480.506)"/><path class="c" d="M1962.436,1485.074h-2.483v6.573h-2.374v-6.573h-2.5V1483h7.353Z" transform="translate(-1935.314 -1482.932)"/></g></g><rect class="a" width="17.401" height="24.61" transform="translate(80.337 75.697)"/><path class="d" d="M1278.528,705.045c.717.309,1.71.762,2.863,1.372a43.608,43.608,0,0,1,5.675,3.635,61.462,61.462,0,0,1,4.938,4.016,22.754,22.754,0,0,1-5.028,6.815c-.881-2.217-1.938-4.59-3.211-7.066a80.522,80.522,0,0,0-5.237-8.771" transform="translate(-1182.954 -624.125)"/><g class="e" transform="translate(91.89 85.287)"><g class="f"><path class="g" d="M1152.5,854.459s5.656,7.137,12.068,11.508a24.9,24.9,0,0,0,5.092-6.824s-13.54-2.855-17.16-4.685" transform="translate(-1152.504 -854.459)"/></g></g><path class="h" d="M538.915,851.689c-.429.651-1.049,1.55-1.852,2.579a43.614,43.614,0,0,1-4.573,4.95,61.351,61.351,0,0,1-4.819,4.158,22.7,22.7,0,0,1-2.02-1.639,22.938,22.938,0,0,1-3.809-4.5c2.337-.479,4.859-1.1,7.52-1.923a80.48,80.48,0,0,0,9.553-3.619" transform="translate(-448.388 -766.482)"/><g class="e" transform="translate(73.427 80.814)"><g transform="translate(0)"><g class="i"><path class="j" d="M534.373,701.436s-8.017,4.318-13.445,9.864a24.891,24.891,0,0,0,5.826,6.209s5.183-12.831,7.619-16.074" transform="translate(-520.928 -701.436)"/></g></g></g><path class="b" d="M984.824,78.858c-.205-.753-.471-1.812-.712-3.094a43.6,43.6,0,0,1-.695-6.7,61.44,61.44,0,0,1,.063-6.365,22.759,22.759,0,0,1,8.463-.316c-1.184,2.071-2.381,4.377-3.524,6.916a80.526,80.526,0,0,0-3.594,9.562" transform="translate(-896.417)"/><g class="e" transform="translate(87.074 62.133)"><g transform="translate(0 0)"><g class="k"><path class="c" d="M994.814,79.222s2.055-8.871,1.477-16.61a25.037,25.037,0,0,0-2.815-.235,24,24,0,0,0-2.507.059,22.1,22.1,0,0,0-3.2.494c1.085,2.071,2.166,4.282,3.219,6.633,1.51,3.375,2.77,6.612,3.826,9.659" transform="translate(-987.77 -62.368)"/></g></g></g></g></svg>